<?xml version="1.0" encoding="UTF-8" standalone="no"?>
<!-- Generator: Adobe Illustrator 25.2.3, SVG Export Plug-In . SVG Version: 6.00 Build 0)  -->

<svg
   version="1.1"
   id="Layer_2"
   x="0px"
   y="0px"
   viewBox="0 0 120 60"
   xml:space="preserve"
   sodipodi:docname="banner.svg"
   width="120"
   height="60"
   inkscape:version="1.3.2 (091e20e, 2023-11-25)"
   xmlns:inkscape="http://www.inkscape.org/namespaces/inkscape"
   xmlns:sodipodi="http://sodipodi.sourceforge.net/DTD/sodipodi-0.dtd"
   xmlns="http://www.w3.org/2000/svg"
   xmlns:svg="http://www.w3.org/2000/svg"><defs
   id="defs18" /><sodipodi:namedview
   id="namedview18"
   pagecolor="#ffffff"
   bordercolor="#000000"
   borderopacity="0.25"
   inkscape:showpageshadow="2"
   inkscape:pageopacity="0.0"
   inkscape:pagecheckerboard="0"
   inkscape:deskcolor="#d1d1d1"
   inkscape:zoom="5.296875"
   inkscape:cx="64.094395"
   inkscape:cy="40.495575"
   inkscape:window-width="1680"
   inkscape:window-height="818"
   inkscape:window-x="1802"
   inkscape:window-y="48"
   inkscape:window-maximized="0"
   inkscape:current-layer="Layer_2" />
<path
   style="fill:#878787;stroke-width:0.31097"
   d="m 29.073983,41.268551 -18.319267,-3.47043 c 0,0 1.107055,4.583704 1.486439,5.202535 0.379383,0.618832 2.702332,2.310511 4.93199,3.103485 2.229658,0.792975 19.273946,0.279873 20.713739,-0.267434 1.436684,-0.544199 4.030177,-1.719667 4.586814,-2.441118 0.472675,-0.612612 1.834725,-5.899109 1.834725,-5.899109 z"
   id="path1" />
<path
   style="fill:#e0e0e0;stroke-width:0.31097"
   d="m 12.776024,40.130399 1.271869,4.400232 c 0,0 0.911143,0.649928 2.210999,1.237662 1.318515,0.597063 3.078607,1.05419 3.078607,1.05419 0,0 1.993321,-3.178118 1.959114,-3.395797 -0.03421,-0.217679 -2.537519,-0.886266 -2.537519,-0.886266 0,0 -2.033746,-0.562856 -3.159459,-0.998215 -1.122603,-0.432249 -2.823611,-1.411806 -2.823611,-1.411806 z"
   id="path2" />
<path
   style="fill:#ababab;stroke-width:0.31097"
   d="m 37.653656,42.279205 c 0,0 1.433574,-0.444688 2.183013,-0.727671 0.870717,-0.329628 1.900029,-0.870717 1.900029,-0.870717 l -1.063519,3.918227 c 0,0 -0.867607,0.491334 -1.663692,0.83962 -1.035531,0.454017 -2.033746,0.764988 -2.033746,0.764988 l -0.758768,-1.812958 z"
   id="path3" />
<path
   style="fill:#c8c8c8;stroke-width:0.31097"
   d="m 19.33128,46.822483 c 0,0 4.067493,0.94535 8.93418,0.799194 4.465535,-0.133718 8.7165,-1.414916 8.7165,-1.414916 l 0.693464,-3.933775 c 0,0 -2.761417,1.060409 -10.461044,1.240772 -4.649008,0.108839 -8.452176,-0.973338 -8.452176,-0.973338 z"
   id="path4" />
<radialGradient
   id="SVGID_1_"
   cx="65.726898"
   cy="51.905201"
   r="43.313999"
   gradientTransform="matrix(0,0.31097041,-0.67760452,0,63.271181,5.9355951)"
   gradientUnits="userSpaceOnUse">
	<stop
   offset="0.3855"
   style="stop-color:#FAC470"
   id="stop4" />
	<stop
   offset="0.7673"
   style="stop-color:#ED9C2C"
   id="stop5" />
</radialGradient>
<path
   style="fill:url(#SVGID_1_);stroke-width:0.31097"
   d="m 10.359784,32.803937 c 0,0.363835 0.398042,3.414455 0.398042,3.414455 0,0 0.908033,1.271869 1.380708,1.526864 0.472675,0.254996 7.373109,2.543738 7.662311,2.615262 0.289203,0.07152 10.712931,0.472675 11.477918,0.472675 0.764987,0 9.080336,-1.962224 9.080336,-1.962224 l 4.717421,-2.291852 c 0,0 0.227009,-2.027527 0.227009,-2.20789 0,-0.180362 -0.53176,-2.509531 -0.727671,-2.686784 -0.276764,-0.251886 -1.747654,-0.94846 -1.747654,-0.94846 0,0 -0.755658,-0.914253 -2.092831,-1.688569 -1.374489,-0.792975 -5.050159,-2.322949 -7.264269,-2.867147 -2.214109,-0.544198 -8.946618,-0.858278 -12.650276,0.04975 -3.703658,0.908034 -6.247395,1.88759 -7.410425,3.122143 -1.163029,1.234553 -1.598388,2.033747 -1.598388,2.033747 z"
   id="path5" />
<path
   style="fill:#ce701d;stroke-width:0.31097"
   d="m 24.424975,26.792879 c 0.06841,0.304751 -0.612612,0.248776 -2.123928,0.94224 -1.147481,0.52554 -2.434898,1.928016 -2.786295,1.128822 -0.373164,-0.842729 0.84895,-1.617046 2.500202,-1.99332 1.206566,-0.276764 2.354046,-0.326519 2.410021,-0.07774 z"
   id="path6" />
<path
   style="fill:#ce701d;stroke-width:0.31097"
   d="m 25.958059,28.114503 c -0.251886,-0.115059 -0.880046,0.612612 -1.477109,1.5704 -0.597063,0.957789 -1.383819,2.226549 -0.565966,2.515751 0.957789,0.338958 1.225223,-1.26254 1.424244,-1.872042 0.385603,-1.181687 0.827181,-2.120818 0.618831,-2.214109 z"
   id="path7" />
<path
   style="fill:#ce701d;stroke-width:0.31097"
   d="m 29.133067,27.940359 c -0.183472,0.09018 0.10262,0.827182 0.41981,1.741435 0.31719,0.914253 0.615722,2.497092 1.595278,2.155025 0.979557,-0.338958 -0.394932,-2.189232 -0.659257,-2.553067 -0.379384,-0.519321 -1.125713,-1.458452 -1.355831,-1.343393 z"
   id="path8" />
<path
   style="fill:#ce701d;stroke-width:0.31097"
   d="m 30.753223,26.98879 c -0.01244,0.338958 1.334063,0.643709 2.649468,1.334063 1.05419,0.556637 2.288742,1.340282 2.52197,0.687245 C 36.157889,28.35084 35.554606,28.03676 33.93756,27.461465 32.323624,26.88617 30.768772,26.652942 30.753223,26.98879 Z"
   id="path9" />
<path
   style="opacity:0.6;fill:#eaeaea;stroke-width:0.31097"
   d="m 29.73635,12.656163 c -0.429139,0.245667 0.02799,1.296747 -0.42292,2.251426 -0.450907,0.95468 -1.536194,1.747654 -2.438008,2.357156 -0.901814,0.609502 -3.588599,2.201671 -3.336713,5.087476 0.21457,2.469105 1.256321,3.722316 2.20789,4.676995 0.858279,0.858278 2.030637,1.707228 2.559287,1.654363 0.52865,-0.05286 -0.02799,-1.987101 0.901814,-3.3647 0.926692,-1.377599 2.543738,-2.490873 3.68189,-3.417565 1.138151,-0.926692 2.385143,-3.178118 0.954679,-5.535273 -1.433574,-2.360266 -3.737864,-3.921338 -4.107919,-3.709878 z"
   id="path10" />
<path
   style="fill:#e08013;stroke-width:0.31097"
   d="m 32.25832,39.589311 c 0,0 1.1537,-1.206565 2.975987,-1.231443 1.822286,-0.02799 2.546847,0.509992 2.546847,0.509992 0,0 0.777426,-1.362051 2.148806,-1.722776 1.601497,-0.419811 2.565506,0.329628 2.646358,0.195911 0.08085,-0.133717 0.388713,-1.816067 0.929802,-2.593493 0.62505,-0.892485 1.14748,-0.876937 1.14748,-0.876937 0,0 -0.133717,-0.94535 -0.724561,-1.803628 -0.497552,-0.724561 -1.094616,-1.330954 -1.094616,-1.330954 0,0 1.315405,-0.217679 2.276304,0.911144 0.699683,0.820962 0.550418,2.316729 0.550418,2.316729 0,0 0.93913,0.590844 0.376274,2.008869 -0.562857,1.418025 -1.676131,2.459776 -3.402017,3.535734 -1.212784,0.758767 -5.88045,2.646358 -10.510799,2.94178 -4.84181,0.30786 -10.433058,0.472675 -15.812846,-1.508207 -3.868472,-1.421135 -7.0030535,-3.616586 -7.4228635,-5.762281 -0.4229198,-2.145696 1.1474805,-3.196776 1.6357045,-3.492198 0.488223,-0.295422 1.290527,-0.298532 1.290527,-0.298532 0,0 -0.385603,0.544198 -0.559747,1.063519 -0.174143,0.52243 -0.245666,0.979557 -0.245666,0.979557 0,0 0.62816,0.758768 0.783645,1.265649 0.155485,0.503772 0.174144,1.719667 0.174144,1.719667 0,0 0.746329,-0.792975 1.949784,-0.304751 1.617046,0.656147 3.420674,2.963548 3.420674,2.963548 0,0 0.537979,-1.041751 2.556177,-0.886266 2.018198,0.155485 4.764067,2.155025 4.764067,2.155025 0,0 1.645033,-1.707227 4.179442,-1.657472 2.31051,0.04664 3.420675,0.901814 3.420675,0.901814 z"
   id="path11" />
<path
   style="fill:#ec9c2a;stroke-width:0.31097"
   d="m 44.840183,34.564029 c -0.273654,-0.177253 -0.687245,0.180363 -0.973338,0.618831 -0.373164,0.565966 -0.469565,1.287418 -0.248776,1.380709 0.335848,0.143046 0.674806,-0.618831 1.010654,-1.044861 0.223898,-0.282983 0.565966,-0.724561 0.21146,-0.954679 z"
   id="path12" />
<path
   style="fill:#ec9c2a;stroke-width:0.31097"
   d="m 40.996588,37.869645 c 0.199021,0.326519 -0.485113,0.600172 -0.752548,0.954679 -0.264325,0.354506 -0.236338,0.870717 -0.478894,0.920472 -0.53176,0.11195 -1.029313,-0.709012 -0.991996,-1.010654 0.03732,-0.301641 0.780536,-0.796084 1.04486,-0.886265 0.264325,-0.09018 0.985777,-0.298532 1.178578,0.02177 z"
   id="path13" />
<path
   style="fill:#ec9c2a;stroke-width:0.31097"
   d="m 35.483083,39.194379 c 0.10884,0.261215 -0.743219,1.010653 -1.063519,1.36516 -0.320299,0.354506 -0.681025,1.04797 -1.063519,0.991995 -0.478894,-0.07152 -0.606392,-0.988886 -0.376274,-1.520645 0.230118,-0.531759 0.649928,-1.007544 1.281198,-1.119494 0.494443,-0.09018 1.097726,-0.01866 1.222114,0.282984 z"
   id="path14" />
<path
   style="fill:#ec9c2a;stroke-width:0.31097"
   d="m 25.541359,42.045977 c 0.587734,0.544198 1.492658,-0.693464 1.735215,-1.010654 0.727671,-0.93913 1.545523,-1.200345 1.557962,-1.505096 0.01866,-0.407372 -1.259431,-0.441578 -2.161245,0.05287 -0.811633,0.447797 -1.840945,1.806738 -1.131932,2.462885 z"
   id="path15" />
<path
   style="fill:#ec9c2a;stroke-width:0.31097"
   d="m 20.124254,39.029564 c -0.01555,0.360726 -0.584624,0.513101 -0.991995,1.010654 -0.301642,0.366945 -0.63749,1.380709 -1.327844,1.044861 -0.690354,-0.335848 -0.382494,-1.355831 0.10573,-1.844055 0.671696,-0.671696 2.229658,-0.656147 2.214109,-0.21146 z"
   id="path16" />
<path
   style="fill:#ec9c2a;stroke-width:0.31097"
   d="m 12.49926,38.538231 c 0.373165,0.21146 0.407371,-0.681025 0.709013,-1.035531 0.301641,-0.354507 0.746329,-0.382494 0.72767,-0.808524 -0.01866,-0.426029 -0.988886,-0.52554 -1.399367,-0.248776 -0.712122,0.478895 -0.534869,1.809848 -0.03732,2.092831 z"
   id="path17" />
<path
   style="fill:#ec9c2a;stroke-width:0.31097"
   d="m 10.070581,36.094004 c 0.478895,0.08707 0.301641,-0.814743 0.550418,-1.187907 0.248776,-0.373165 0.618831,-0.513102 0.373164,-0.957789 -0.248776,-0.441578 -1.1350418,-0.354507 -1.3993667,0.388713 -0.1959113,0.544198 -0.2332278,1.623265 0.4757847,1.756983 z"
   id="path18" />
<path
   style="font-weight:600;font-size:16px;line-height:1;font-family:'IBM Plex Sans';-inkscape-font-specification:'IBM Plex Sans, Semi-Bold';fill:#1a1a1a"
   d="m 60.592235,27.185842 v -11.168 h 5.024 q 0.768,0 1.376,0.256 0.624,0.24 1.056,0.704 0.432,0.448 0.656,1.088 0.224,0.64 0.224,1.408 0,0.784 -0.224,1.424 -0.224,0.624 -0.656,1.088 -0.432,0.448 -1.056,0.704 -0.608,0.24 -1.376,0.24 h -2.912 v 4.256 z m 2.112,-6.08 h 2.72 q 0.608,0 0.96,-0.32 0.352,-0.336 0.352,-0.944 v -0.736 q 0,-0.608 -0.352,-0.928 -0.352,-0.32 -0.96,-0.32 h -2.72 z m 13.008012,4.688 h -0.08 q -0.112,0.32 -0.304,0.608 -0.176,0.272 -0.464,0.496 -0.272,0.224 -0.672,0.352 -0.384,0.128 -0.896,0.128 -1.296,0 -1.984,-0.848 -0.688,-0.848 -0.688,-2.416 v -5.28 h 2.048 v 5.072 q 0,0.864 0.336,1.328 0.336,0.448 1.072,0.448 0.304,0 0.592,-0.08 0.304,-0.08 0.528,-0.24 0.224,-0.176 0.368,-0.416 0.144,-0.256 0.144,-0.592 v -5.52 h 2.048 v 8.352 h -2.048 z m 4.415989,-10.448 h 2.048 v 4.864 h 0.064 q 0.224,-0.72 0.848,-1.136 0.624,-0.432 1.456,-0.432 1.6,0 2.432,1.136 0.848,1.12 0.848,3.216 0,2.112 -0.848,3.248 -0.832,1.136 -2.432,1.136 -0.832,0 -1.456,-0.432 -0.608,-0.432 -0.848,-1.152 h -0.064 v 1.392 h -2.048 z m 3.76,10.336 q 0.8,0 1.296,-0.528 0.496,-0.528 0.496,-1.424 v -1.44 q 0,-0.896 -0.496,-1.424 -0.496,-0.544 -1.296,-0.544 -0.736,0 -1.232,0.368 -0.48,0.368 -0.48,0.976 v 2.656 q 0,0.656 0.48,1.008 0.496,0.352 1.232,0.352 z m 7.888006,1.504 q -1.056,0 -1.552,-0.528 -0.496,-0.528 -0.496,-1.488 v -9.824 h 2.048 v 10.208 h 1.104 v 1.632 z m 3.68001,-9.568 q -0.64,0 -0.928,-0.288 -0.272,-0.288 -0.272,-0.736 v -0.32 q 0,-0.448 0.272,-0.736 0.288,-0.288 0.928,-0.288 0.624,0 0.912,0.288 0.288,0.288 0.288,0.736 v 0.32 q 0,0.448 -0.288,0.736 -0.288,0.288 -0.912,0.288 z m -1.024,1.216 h 2.048 v 8.352 h -2.048 z m 7.711978,8.544 q -0.928,0 -1.64799,-0.304 -0.720003,-0.304 -1.216003,-0.88 -0.48,-0.576 -0.736,-1.376 -0.256,-0.816 -0.256,-1.824 0,-1.008 0.256,-1.808 0.256,-0.8 0.736,-1.36 0.496,-0.576 1.216003,-0.88 0.71999,-0.304 1.64799,-0.304 1.264,0 2.08,0.56 0.832,0.56 1.2,1.552 l -1.68,0.752 q -0.144,-0.528 -0.544,-0.864 -0.384,-0.352 -1.056,-0.352 -0.864,0 -1.296,0.544 -0.41599,0.544 -0.41599,1.424 v 1.52 q 0,0.88 0.41599,1.424 0.432,0.528 1.296,0.528 0.736,0 1.136,-0.368 0.4,-0.384 0.624,-0.944 l 1.568,0.752 q -0.416,1.104 -1.264,1.664 -0.848,0.544 -2.064,0.544 z"
   id="text18"
   aria-label="Public" /><path
   style="font-weight:600;font-size:16px;line-height:1;font-family:'IBM Plex Sans';-inkscape-font-specification:'IBM Plex Sans, Semi-Bold';fill:#1a1a1a"
   d="m 53.01475,43.458129 v -1.696 h 1.472 v -7.776 h -1.472 v -1.696 h 5.072 v 1.696 h -1.488 v 7.776 h 1.488 v 1.696 z m 12.208019,-1.392 h -0.08 q -0.224,0.72 -0.848,1.152 -0.624,0.432 -1.456,0.432 -1.584,0 -2.432,-1.136 -0.832,-1.136 -0.832,-3.248 0,-2.096 0.832,-3.216 0.848,-1.136 2.432,-1.136 0.832,0 1.456,0.432 0.624,0.416 0.848,1.136 h 0.08 v -4.864 h 2.048 v 11.84 h -2.048 z m -1.728,-0.112 q 0.736,0 1.232,-0.352 0.496,-0.352 0.496,-1.008 v -2.656 q 0,-0.608 -0.496,-0.976 -0.496,-0.368 -1.232,-0.368 -0.8,0 -1.296,0.544 -0.48,0.528 -0.48,1.424 v 1.44 q 0,0.896 0.48,1.424 0.496,0.528 1.296,0.528 z m 9.520006,1.696 q -0.928,0 -1.664,-0.304 -0.72,-0.32 -1.232,-0.88 -0.496,-0.576 -0.768,-1.376 -0.272,-0.816 -0.272,-1.824 0,-0.992 0.256,-1.792 0.272,-0.8 0.768,-1.36 0.496,-0.576 1.216,-0.88 0.72,-0.32 1.632,-0.32 0.976,0 1.696,0.336 0.72,0.336 1.184,0.912 0.464,0.576 0.688,1.344 0.24,0.752 0.24,1.616 v 0.672 h -5.552 v 0.208 q 0,0.912 0.512,1.472 0.512,0.544 1.52,0.544 0.768,0 1.248,-0.32 0.496,-0.32 0.88,-0.816 l 1.104,1.232 q -0.512,0.72 -1.408,1.136 -0.88,0.4 -2.048,0.4 z m -0.032,-7.2 q -0.816,0 -1.296,0.544 -0.48,0.544 -0.48,1.408 v 0.128 h 3.424 v -0.144 q 0,-0.864 -0.432,-1.392 -0.416,-0.544 -1.216,-0.544 z m 5.584009,7.008 v -8.352 h 2.048 v 1.392 h 0.08 q 0.256,-0.672 0.8,-1.12 0.56,-0.464 1.536,-0.464 1.296,0 1.984,0.848 0.688,0.848 0.688,2.416 v 5.28 h -2.048 v -5.072 q 0,-0.896 -0.32,-1.344 -0.32,-0.448 -1.056,-0.448 -0.32,0 -0.624,0.096 -0.288,0.08 -0.528,0.256 -0.224,0.16 -0.368,0.416 -0.144,0.24 -0.144,0.576 v 5.52 z m 12.01599,0 q -1.056,0 -1.616,-0.544 -0.544,-0.56 -0.544,-1.584 v -4.592 h -1.232 v -1.632 h 0.64 q 0.464,0 0.624,-0.208 0.176,-0.224 0.176,-0.656 v -1.424 h 1.84 v 2.288 h 1.712 v 1.632 h -1.712 v 5.088 h 1.584 v 1.632 z m 4.400009,-9.568 q -0.64,0 -0.928,-0.288 -0.272,-0.288 -0.272,-0.736 v -0.32 q 0,-0.448 0.272,-0.736 0.288,-0.288 0.928,-0.288 0.624,0 0.912,0.288 0.288,0.288 0.288,0.736 v 0.32 q 0,0.448 -0.288,0.736 -0.288,0.288 -0.912,0.288 z m -1.024,1.216 h 2.048 v 8.352 h -2.048 z m 7.023987,8.352 q -1.056002,0 -1.616002,-0.544 -0.544,-0.56 -0.544,-1.584 v -4.592 h -1.232 v -1.632 h 0.64 q 0.464,0 0.624,-0.208 0.176,-0.224 0.176,-0.656 v -1.424 h 1.840002 v 2.288 h 1.712 v 1.632 h -1.712 v 5.088 h 1.584 v 1.632 z m 8.496,-8.352 h 1.92 l -3.36,9.84 q -0.16,0.448 -0.368,0.768 -0.192,0.336 -0.464,0.544 -0.272,0.208 -0.656,0.304 -0.384,0.096 -0.896,0.096 h -1.232 v -1.632 h 1.504 l 0.384,-1.168 -2.99199,-8.752 h 2.03199 l 1.456,4.416 0.544,2.112 h 0.096 l 0.576,-2.112 z"
   id="text18-1"
   aria-label="Identity" /></svg>
